<svg width="149" height="44" viewBox="0 0 149 44" fill="none" xmlns="http://www.w3.org/2000/svg">
<path d="M68.05 31V20.2H72.5125C72.6175 20.2 72.7525 20.205 72.9175 20.215C73.0825 20.22 73.235 20.235 73.375 20.26C74 20.355 74.515 20.5625 74.92 20.8825C75.33 21.2025 75.6325 21.6075 75.8275 22.0975C76.0275 22.5825 76.1275 23.1225 76.1275 23.7175C76.1275 24.5975 75.905 25.355 75.46 25.99C75.015 26.62 74.3325 27.01 73.4125 27.16L72.64 27.2275H69.8575V31H68.05ZM74.2525 31L72.1225 26.605L73.96 26.2L76.3 31H74.2525ZM69.8575 25.54H72.4375C72.5375 25.54 72.65 25.535 72.775 25.525C72.9 25.515 73.015 25.495 73.12 25.465C73.42 25.39 73.655 25.2575 73.825 25.0675C74 24.8775 74.1225 24.6625 74.1925 24.4225C74.2675 24.1825 74.305 23.9475 74.305 23.7175C74.305 23.4875 74.2675 23.2525 74.1925 23.0125C74.1225 22.7675 74 22.55 73.825 22.36C73.655 22.17 73.42 22.0375 73.12 21.9625C73.015 21.9325 72.9 21.915 72.775 21.91C72.65 21.9 72.5375 21.895 72.4375 21.895H69.8575V25.54ZM79.1523 31V20.2H86.1273V21.895H80.9598V24.5575H85.2273V26.2525H80.9598V29.305H86.1273V31H79.1523ZM93.3134 31.225C92.2334 31.225 91.3084 30.99 90.5384 30.52C89.7684 30.045 89.1759 29.385 88.7609 28.54C88.3509 27.695 88.1459 26.715 88.1459 25.6C88.1459 24.485 88.3509 23.505 88.7609 22.66C89.1759 21.815 89.7684 21.1575 90.5384 20.6875C91.3084 20.2125 92.2334 19.975 93.3134 19.975C94.5584 19.975 95.5959 20.2875 96.4259 20.9125C97.2559 21.5325 97.8384 22.37 98.1734 23.425L96.3509 23.9275C96.1409 23.2225 95.7834 22.6725 95.2784 22.2775C94.7734 21.8775 94.1184 21.6775 93.3134 21.6775C92.5884 21.6775 91.9834 21.84 91.4984 22.165C91.0184 22.49 90.6559 22.9475 90.4109 23.5375C90.1709 24.1225 90.0484 24.81 90.0434 25.6C90.0434 26.39 90.1634 27.08 90.4034 27.67C90.6484 28.255 91.0134 28.71 91.4984 29.035C91.9834 29.36 92.5884 29.5225 93.3134 29.5225C94.1184 29.5225 94.7734 29.3225 95.2784 28.9225C95.7834 28.5225 96.1409 27.9725 96.3509 27.2725L98.1734 27.775C97.8384 28.83 97.2559 29.67 96.4259 30.295C95.5959 30.915 94.5584 31.225 93.3134 31.225ZM101.17 31V20.2H102.978V31H101.17ZM106.424 31V20.2H110.887C110.992 20.2 111.127 20.205 111.292 20.215C111.457 20.22 111.609 20.235 111.749 20.26C112.374 20.355 112.889 20.5625 113.294 20.8825C113.704 21.2025 114.007 21.6075 114.202 22.0975C114.402 22.5825 114.502 23.1225 114.502 23.7175C114.502 24.3075 114.402 24.8475 114.202 25.3375C114.002 25.8225 113.697 26.225 113.287 26.545C112.882 26.865 112.369 27.0725 111.749 27.1675C111.609 27.1875 111.454 27.2025 111.284 27.2125C111.119 27.2225 110.987 27.2275 110.887 27.2275H108.232V31H106.424ZM108.232 25.54H110.812C110.912 25.54 111.024 25.535 111.149 25.525C111.274 25.515 111.389 25.495 111.494 25.465C111.794 25.39 112.029 25.2575 112.199 25.0675C112.374 24.8775 112.497 24.6625 112.567 24.4225C112.642 24.1825 112.679 23.9475 112.679 23.7175C112.679 23.4875 112.642 23.2525 112.567 23.0125C112.497 22.7675 112.374 22.55 112.199 22.36C112.029 22.17 111.794 22.0375 111.494 21.9625C111.389 21.9325 111.274 21.915 111.149 21.91C111.024 21.9 110.912 21.895 110.812 21.895H108.232V25.54ZM117.204 31V20.2H124.179V21.895H119.012V24.5575H123.279V26.2525H119.012V29.305H124.179V31H117.204ZM127.029 26.305V24.8875H131.529V26.305H127.029ZM134.828 31V20.2H136.635V31H134.828ZM142.677 31V21.895H139.182V20.2H147.979V21.895H144.484V31H142.677Z" fill="black"/>
<path d="M11 25.4283C9.14092 25.0291 7.50958 23.9234 6.45011 22.3445C5.39064 20.7656 4.98587 18.8368 5.3212 16.9652C5.65653 15.0935 6.70573 13.4253 8.24747 12.3124C9.78922 11.1995 11.703 10.7289 13.585 11C14.0481 9.94883 14.7007 8.9918 15.51 8.17666C16.3615 7.32301 17.373 6.64572 18.4867 6.1836C19.6004 5.72148 20.7943 5.48361 22 5.48361C23.2057 5.48361 24.3996 5.72148 25.5133 6.1836C26.6269 6.64572 27.6385 7.32301 28.49 8.17666C29.2993 8.9918 29.9518 9.94883 30.415 11C32.297 10.7289 34.2108 11.1995 35.7525 12.3124C37.2943 13.4253 38.3435 15.0935 38.6788 16.9652C39.0141 18.8368 38.6094 20.7656 37.5499 22.3445C36.4904 23.9234 34.8591 25.0291 33 25.4283V38.5H11V25.4283Z" stroke="black" stroke-width="2" stroke-linecap="round" stroke-linejoin="round"/>
<path d="M11 31.1667H33" stroke="black" stroke-width="2" stroke-linecap="round" stroke-linejoin="round"/>
</svg>
